<svg id="bc5a85e8-9913-4be6-a201-1fbf709fc630" data-name="Layer 1" xmlns="http://www.w3.org/2000/svg" viewBox="0 0 512 512"><defs><style>.a8e59239-eb71-436d-96c5-61dbee81bd87{fill:#2d3872;}.a6dfcfd2-1a80-40de-93e8-23caf389fdff{fill:#28a772;}.eeab86f3-6223-4d53-aab2-21fea0f11586{fill:#f1972e;}</style></defs><path class="a8e59239-eb71-436d-96c5-61dbee81bd87" d="M407.77,148.1c5.79.39,13.14,2.62,16.9-.51,3.56-3,.9-10.56,1.18-16.12.13-2.4,0-4.81,0-7.21,0-14.87-7.6-23.56-22.28-25.57-1.73-.24-4.07.29-4.05-2.35,0-3.79-2-7.41-.93-11.15.16-.53,2.56-.57,3.91-.57a37.83,37.83,0,0,1,37.72,36.82c.25,9.41.11,18.85-.05,28.27-.05,2.59.37,4.24,2.75,5.93,10.48,7.46,15.89,17.74,15.91,30.72,0,19.65.17,39.3.06,58.95,0,3.4.75,5.24,4.09,6.88,9.6,4.69,14.86,12.78,15.16,23.47q.61,21.64.3,43.3c-.19,11.4-5.83,19.89-16,24.92-2.84,1.4-3.66,2.72-3.63,5.78.24,19.44.24,38.89.32,58.34.12,25.92-15.95,41.95-41.93,41.94q-171.48,0-343,0c-19.21,0-32.33-9.09-38.69-26.55a39.16,39.16,0,0,1-2.14-13.53q0-143.16,0-286.33c0-21.24,15.94-38.42,37.14-38.75,38.1-.58,76.21-.28,114.32-.32.34,0,.69.28,1.78.75-5.19,2.34-10.32,2.58-15.18,3.67-8.21,1.83-16.68,2.73-24.71,5.14-24,7.2-48.54,4.13-72.89,4.6-12.22.23-21.51,6.31-25.76,17C43.69,127,52.51,147,69.24,148.13c3.8.25,7.62.15,11.43.15l308.65.07c1,0,2-.12,3-.18ZM158.33,227.73c-4.61,0-9.24.39-13.82,0s-7.76,1.26-10.91,4.67c-9,9.73-18.4,19-27.54,28.59a11.23,11.23,0,0,1-9,3.76c-13-.23-26.07-.18-39.11-.21-10.15,0-9.75,0-10.28,9.9-.3,5.6,1.67,6.49,6.68,6.46q49-.3,98.08,0c4,0,6.33-1,8.44-4.72,5.14-9.06,15-12.7,24.78-10a22.36,22.36,0,0,1-.43,43c-9.88,2.79-19.35-.86-24.52-10.29-2-3.65-4.3-4.37-8-4.35-33.29.1-66.59.14-99.88-.08-4.53,0-5.48,1.58-5,5.51.4,3.58-1.75,8,5.31,7.75,14.83-.47,29.68.12,44.52-.12,5.2-.08,9.09,1.26,12.69,5.16C118.7,322,128,330.4,136,339.82c5.64,6.56,12.45,3.53,18.85,4.34,4.67.6,4.56-3.77,6.23-6.09,5.86-8.14,15.39-11.5,24.94-8.46a22.21,22.21,0,0,1,15.84,21.74c-.1,9.36-6.8,18.27-15.93,21.19s-19.67-.18-24.24-8.44c-2.94-5.32-6.26-6.92-11.77-6.07-2.35.37-4.85-.18-7.2.17-5.57.85-9.41-1.58-13.1-5.47-8.69-9.17-17.83-17.91-26.51-27.08a12.72,12.72,0,0,0-10.52-4.29c-11.42.3-22.86.1-34.29.13-10.64,0-10.4,0-10.66,10.79-.1,4.38,1.37,5.32,5.42,5.23,10.82-.26,21.66-.08,32.49-.11,2.66,0,5.21.16,7.24,2.21,10.56,10.7,21.17,21.37,31.69,32.11,3.12,3.19,3.57,6.73.2,10s-6.87,2.52-10-.59c-4.7-4.66-10-8.87-13.88-14.16-9.35-12.85-21.3-18.33-37.08-15.75a45.42,45.42,0,0,1-11.41-.1c-3.76-.35-4.66.92-4.62,4.65.22,17.65.07,35.3.09,52.94,0,17.45,9.66,27.09,27.2,27.08q172.1,0,344.19-.11c15.76,0,25.57-9.7,25.63-25.37.06-19.46-.19-38.91.07-58.36.06-4.63-1.33-5.55-5.72-5.52-28.68.22-57.37.15-86.05.15-17.24,0-29.56-12.15-29.7-29.39-.1-12.43.29-24.87-.11-37.29-.6-18.31,13.14-31.16,31.16-30.8,28.27.58,56.56.13,84.84.37,4.48,0,5.73-1.13,5.65-5.66-.29-17.44-.1-34.89-.15-52.33-.06-20.47-8.44-28.94-28.8-28.94q-166.08,0-332.15.07c-12.56,0-25.25,1-36-9,0,31.9.06,62.57-.09,93.24,0,3.65,1.7,3.69,4.37,3.68,13,0,26.08,0,39.11.28a10.87,10.87,0,0,0,8.86-3.83c9.27-9.73,18.73-19.27,28.1-28.89,2.11-2.16,4.08-4.23,7.61-4.07,7.4.34,14.82.33,22.24.47A28.18,28.18,0,0,0,158.33,227.73Zm242.9,104.62v-.1c8,0,16,0,24,0s16,.14,24,.12c10,0,14.85-4.77,14.91-14.61q.12-19.81,0-39.64c0-10-4.8-14.72-14.74-14.72q-48.06,0-96.13.07c-10.54,0-15.75,5.38-15.76,16,0,12.22.05,24.43.11,36.64,0,11.16,4.92,16.15,16.07,16.2C369.58,332.4,385.41,332.35,401.23,332.35Zm-212.59,19a9.67,9.67,0,0,0-8.91-9.54c-5-.16-9.6,4.39-9.6,9.52,0,4.53,4.06,8.51,8.85,8.71A9.42,9.42,0,0,0,188.64,351.37Zm-9.41-72.74a9,9,0,0,0-8.9,8.66,9.2,9.2,0,0,0,8.85,9.41,9.08,9.08,0,0,0,9.25-9A9.24,9.24,0,0,0,179.23,278.63Z"/><path class="a6dfcfd2-1a80-40de-93e8-23caf389fdff" d="M408.66,148.1l-15.46.07c3.26-17-4.86-26.48-22-25.29q-60,4.14-119.94,8.53c-27.17,2-54.33,4.06-81.5,6.05q-40.14,3-80.28,5.82c-1.6.12-3.21.21-4.81.17-7.74-.21-13.13-4.59-14-11.37a13.62,13.62,0,0,1,10.66-15.26c10.12-2.39,20.42-4,30.61-6.11q53.73-11,107.46-22.14,41.94-8.62,83.89-17.16c14.22-2.87,28.43-5.84,42.74-8.25,7.24-1.22,14.85-1.93,22,.38,16.85,5.49,22,21.14,23.18,35.36,0,.56,0,1.57-.22,1.63-4.11,1.22-8.29.15-12.45.2-3.14,0-2.35-2.64-2.77-4.41-.54-2.33-.74-4.76-1.46-7-3-9.44-10.66-14.35-20.39-12.46Q301.64,87,249.56,97.56q-69.42,14-138.81,28.1c.38,1,.92,1.89,2.12,1.79,23.34-1.85,46.67-3.84,70-5.57q69.56-5.16,139.12-10.1c15.69-1.14,31.45-1.63,47.05-3.5,24.33-2.92,41,14.32,39.51,36.82A27.4,27.4,0,0,0,408.66,148.1Z"/><path class="eeab86f3-6223-4d53-aab2-21fea0f11586" d="M159,214.53c2.15-4.06,4-8.25,7.91-11.12,10.72-7.91,24.64-5.48,32,5.66,7,10.63,3.53,25-7.72,31.71-10.47,6.22-24.12,2.06-30.24-9.24-.66-1.22-1.17-2.54-1.75-3.81A28.05,28.05,0,0,1,159,214.53Zm30.46,6.57a9.11,9.11,0,0,0-8.51-9.21c-4.82-.26-9.25,4-9.37,9a8.85,8.85,0,0,0,8.49,9.1A9,9,0,0,0,189.47,221.1Z"/><path class="eeab86f3-6223-4d53-aab2-21fea0f11586" d="M189.52,351.37c-.15,4.8-4.71,8.9-9.65,8.69-4.79-.2-8.84-4.18-8.85-8.71a9.25,9.25,0,1,1,18.5,0Z"/><path class="a8e59239-eb71-436d-96c5-61dbee81bd87" d="M374.7,320.35a22.5,22.5,0,0,1-22.39-22.05c-.12-12.39,10.56-22.92,23.06-22.76,12,.16,21.88,10.33,22,22.53C397.41,310.08,386.41,320.71,374.7,320.35Zm9.66-21.47c.38-4.59-3.75-9.48-8.41-10a9.37,9.37,0,0,0-10.21,8.63A8.62,8.62,0,0,0,373.6,307C379,307.47,384,303.73,384.36,298.88Z"/><path class="eeab86f3-6223-4d53-aab2-21fea0f11586" d="M384.36,298.88c-.41,4.85-5.37,8.59-10.76,8.11a8.62,8.62,0,0,1-7.86-9.44A9.37,9.37,0,0,1,376,288.92C380.61,289.4,384.74,294.29,384.36,298.88Z"/></svg>