<svg id="b0c914fd-2f4a-41ed-a77c-fff01597de5c" data-name="Layer 1" xmlns="http://www.w3.org/2000/svg" viewBox="0 0 512 512"><defs><style>.faa10f8f-993e-4622-80e9-dec386995fba{fill:#2d3872;}.ea8bb3be-b038-4df6-9aac-fac9f11daeea{fill:#28a772;}.ecdfbeef-6c01-4cfb-9563-55c64336dd3b{fill:#f1972e;}.e69f99cf-8543-4e5a-b6a5-c53e79f45822{fill:#fcfcfc;}</style></defs><g id="ab2751b3-e4fb-40dd-8329-80ada1d31bde" data-name="Logo"><path class="faa10f8f-993e-4622-80e9-dec386995fba" d="M406,140.2c5.79.39,13.14,2.62,16.9-.51,3.56-3,.9-10.56,1.19-16.11.12-2.4,0-4.82,0-7.22,0-14.87-7.6-23.56-22.28-25.57-1.73-.23-4.06.29-4.05-2.35,0-3.79-2-7.41-.92-11.15.15-.53,2.55-.57,3.91-.57a37.83,37.83,0,0,1,37.71,36.82c.25,9.42.11,18.85-.05,28.27,0,2.59.37,4.24,2.75,5.93,10.48,7.46,15.89,17.74,15.92,30.72,0,19.65.16,39.3.05,58.95,0,3.4.75,5.25,4.09,6.88,9.6,4.69,14.86,12.78,15.16,23.47q.61,21.64.3,43.31c-.19,11.39-5.83,19.88-16,24.91-2.83,1.41-3.66,2.72-3.62,5.78.24,19.45.23,38.9.32,58.34.11,25.93-16,41.95-41.94,41.95q-171.48,0-343,0c-19.21,0-32.33-9.09-38.69-26.55A39.16,39.16,0,0,1,31.7,402q0-143.16,0-286.33c0-21.24,15.94-38.42,37.14-38.74,38.1-.58,76.21-.28,114.32-.33.35,0,.7.28,1.79.76-5.2,2.33-10.32,2.57-15.19,3.66-8.21,1.83-16.68,2.73-24.7,5.14-24,7.21-48.55,4.13-72.9,4.6-12.22.23-21.51,6.32-25.75,17.06C42,119.1,50.77,139.12,67.5,140.23c3.8.25,7.62.15,11.43.16q154.32,0,308.66.06c1,0,2-.12,3-.18ZM156.59,219.83c-4.61,0-9.24.39-13.82,0s-7.76,1.26-10.9,4.67c-9,9.73-18.41,19-27.55,28.6a11.22,11.22,0,0,1-9,3.75c-13-.23-26.08-.18-39.11-.21-10.15,0-9.75,0-10.29,9.9-.3,5.6,1.67,6.49,6.68,6.46q49.05-.3,98.08,0c4,0,6.33-1,8.44-4.72,5.14-9.06,15-12.7,24.78-9.95a22.36,22.36,0,0,1-.42,43c-9.88,2.79-19.36-.86-24.53-10.28-2-3.65-4.3-4.37-8-4.36-33.29.1-66.59.14-99.88-.08-4.53,0-5.47,1.58-5,5.51.4,3.58-1.75,8,5.31,7.75,14.83-.46,29.68.12,44.52-.12,5.2-.08,9.09,1.26,12.69,5.16,8.42,9.15,17.68,17.54,25.76,27,5.64,6.56,12.45,3.53,18.85,4.34,4.67.6,4.56-3.76,6.23-6.09,5.86-8.14,15.39-11.5,24.94-8.46a22.22,22.22,0,0,1,15.84,21.74c-.09,9.36-6.8,18.27-15.93,21.19s-19.67-.18-24.24-8.44c-2.94-5.32-6.26-6.92-11.77-6.06-2.35.36-4.85-.19-7.2.17-5.57.84-9.4-1.59-13.09-5.48-8.7-9.16-17.84-17.9-26.52-27.08a12.75,12.75,0,0,0-10.52-4.29c-11.42.3-22.86.11-34.29.13-10.64,0-10.4,0-10.65,10.79-.11,4.38,1.36,5.32,5.41,5.23,10.82-.26,21.66-.07,32.49-.11,2.66,0,5.22.16,7.24,2.21,10.57,10.71,21.17,21.37,31.69,32.11,3.13,3.19,3.57,6.73.21,10.05s-6.88,2.52-10-.59c-4.7-4.66-10-8.87-13.88-14.15C89.75,346.27,77.81,340.79,62,343.37a45.42,45.42,0,0,1-11.41-.1c-3.76-.35-4.66.92-4.62,4.66.22,17.64.08,35.29.09,52.94,0,17.44,9.66,27.08,27.2,27.08q172.09,0,344.19-.12c15.77,0,25.58-9.69,25.63-25.37.07-19.45-.19-38.91.07-58.35.06-4.64-1.33-5.56-5.72-5.53-28.68.22-57.36.15-86.05.15-17.23,0-29.56-12.15-29.7-29.38-.1-12.44.29-24.88-.11-37.3-.59-18.3,13.14-31.16,31.16-30.79,28.27.57,56.56.12,84.84.37,4.48,0,5.73-1.13,5.66-5.66-.3-17.45-.11-34.89-.16-52.34-.06-20.47-8.44-28.94-28.8-28.94q-166.07,0-332.15.07c-12.56,0-25.24,1-36-9,0,31.91.07,62.57-.08,93.24,0,3.65,1.69,3.69,4.36,3.69,13,0,26.08-.05,39.11.27a10.87,10.87,0,0,0,8.86-3.83c9.27-9.73,18.73-19.27,28.11-28.89,2.1-2.16,4.07-4.23,7.6-4.06,7.4.34,14.83.33,22.24.46A28.32,28.32,0,0,0,156.59,219.83Zm242.9,104.62v-.1c8,0,16,0,24,0s16,.15,24,.12c10,0,14.85-4.77,14.91-14.61q.12-19.82,0-39.64c-.05-10-4.8-14.71-14.74-14.72q-48.06,0-96.13.07c-10.53,0-15.75,5.38-15.76,16,0,12.21.06,24.42.11,36.64,0,11.15,4.93,16.14,16.07,16.19C367.85,324.5,383.67,324.45,399.49,324.45Zm-212.59,19a9.67,9.67,0,0,0-8.91-9.54c-5-.16-9.6,4.4-9.59,9.53,0,4.52,4,8.5,8.84,8.7A9.42,9.42,0,0,0,186.9,343.47Zm-9.41-72.74a9,9,0,0,0-8.9,8.67,9.2,9.2,0,0,0,8.85,9.4,9.08,9.08,0,0,0,9.25-9A9.24,9.24,0,0,0,177.49,270.73Z"/><path class="ea8bb3be-b038-4df6-9aac-fac9f11daeea" d="M406.92,140.2l-15.46.07c3.26-17-4.86-26.47-22-25.29q-60,4.14-119.94,8.54c-27.17,2-54.33,4-81.5,6q-40.14,2.94-80.28,5.81c-1.6.12-3.21.21-4.81.17-7.74-.2-13.13-4.59-14-11.37a13.63,13.63,0,0,1,10.67-15.26c10.11-2.39,20.41-4,30.6-6.1q53.75-11,107.46-22.15Q259.53,72,301.48,63.52c14.22-2.88,28.44-5.84,42.74-8.26,7.24-1.22,14.85-1.93,22,.39,16.85,5.48,22,21.14,23.18,35.36,0,.55,0,1.56-.21,1.63-4.12,1.22-8.3.14-12.46.19-3.14,0-2.35-2.64-2.76-4.4-.55-2.34-.75-4.77-1.47-7C369.43,72,361.8,67,352.07,68.94Q299.9,79.1,247.82,89.66q-69.42,14-138.81,28.1c.38,1,.92,1.89,2.12,1.8,23.34-1.86,46.67-3.85,70-5.58q69.56-5.16,139.12-10.1c15.69-1.14,31.45-1.63,47.06-3.5,24.32-2.92,41,14.32,39.5,36.82C406.77,138.2,406.89,139.2,406.92,140.2Z"/><path class="ecdfbeef-6c01-4cfb-9563-55c64336dd3b" d="M157.27,206.63c2.15-4,4-8.25,7.92-11.12,10.71-7.9,24.63-5.48,32,5.66,7,10.63,3.53,25-7.72,31.71-10.47,6.22-24.12,2.06-30.23-9.23-.67-1.23-1.18-2.54-1.76-3.82A28.05,28.05,0,0,1,157.27,206.63Zm30.46,6.57a9.08,9.08,0,0,0-8.51-9.2c-4.82-.26-9.25,4-9.36,9a8.83,8.83,0,0,0,8.48,9.09A9,9,0,0,0,187.73,213.2Z"/><path class="ecdfbeef-6c01-4cfb-9563-55c64336dd3b" d="M187.78,343.47c-.15,4.8-4.71,8.9-9.65,8.69-4.79-.2-8.84-4.18-8.85-8.7,0-5.13,4.59-9.69,9.6-9.53A9.65,9.65,0,0,1,187.78,343.47Z"/><path class="e69f99cf-8543-4e5a-b6a5-c53e79f45822" d="M178.38,270.73a9.23,9.23,0,0,1,9.19,9.09,9.06,9.06,0,0,1-9.24,9,9.2,9.2,0,0,1-8.85-9.4A9,9,0,0,1,178.38,270.73Z"/><path class="faa10f8f-993e-4622-80e9-dec386995fba" d="M373,312.45a22.51,22.51,0,0,1-22.39-22c-.11-12.39,10.56-22.93,23.06-22.77,12,.16,21.88,10.34,22,22.53C395.67,302.18,384.67,312.81,373,312.45ZM382.62,291c.38-4.6-3.74-9.48-8.41-10A9.38,9.38,0,0,0,364,289.65a8.61,8.61,0,0,0,7.86,9.44C377.26,299.57,382.21,295.83,382.62,291Z"/><path class="e69f99cf-8543-4e5a-b6a5-c53e79f45822" d="M187.73,213.2a9,9,0,0,1-9.39,8.88,8.83,8.83,0,0,1-8.48-9.09c.11-5,4.54-9.25,9.36-9A9.08,9.08,0,0,1,187.73,213.2Z"/><path class="ecdfbeef-6c01-4cfb-9563-55c64336dd3b" d="M382.62,291c-.41,4.84-5.36,8.58-10.76,8.1a8.61,8.61,0,0,1-7.86-9.44A9.38,9.38,0,0,1,374.21,281C378.88,281.51,383,286.39,382.62,291Z"/></g></svg>